<?xml version="1.0" encoding="UTF-8"?>
<svg version="1.1" xmlns="http://www.w3.org/2000/svg" width="512" height="512">
<path d="M0 0 C5.78333721 3.49487689 10.63045208 8.99791565 12.5625 15.5 C12.69960218 18.14607209 12.75312972 20.67469013 12.6875 23.3125 C12.67847656 24.00537109 12.66945313 24.69824219 12.66015625 25.41210938 C12.63676157 27.10822395 12.60089641 28.80415871 12.5625 30.5 C14.0475 30.43039063 14.0475 30.43039063 15.5625 30.359375 C29.92483644 29.8791753 29.92483644 29.8791753 35.5625 34.5 C40.60480096 39.3112792 44.16765587 43.65715651 44.8984375 50.76953125 C44.99233204 59.28576573 44.6802288 65.17595494 38.69140625 71.46484375 C32.64739322 77.05184256 28.01670926 78.82907169 19.75 78.625 C16.1921875 78.563125 16.1921875 78.563125 12.5625 78.5 C12.5625 86.42 12.5625 94.34 12.5625 102.5 C14.68429687 102.43039063 16.80609375 102.36078125 18.9921875 102.2890625 C21.08067461 102.24207505 23.1690996 102.20575616 25.2578125 102.17041016 C26.69330832 102.14050399 28.12862568 102.09976137 29.56347656 102.04736328 C38.84901444 101.71712449 46.15519375 102.17099643 53.5625 108.5 C59.16575543 114.48241093 60.83837369 121.07429399 60.75708008 129.16259766 C60.4599861 132.73145307 59.21813754 135.78181321 57.75 139 C57.44956787 139.69343506 57.14913574 140.38687012 56.83959961 141.10131836 C56.15746652 142.66835352 55.46725196 144.23188688 54.77050781 145.79248047 C53.38040934 148.90812156 52.01401877 152.03369388 50.6484375 155.16015625 C47.97049144 161.28117581 45.27250061 167.39311192 42.5625 173.5 C43.84125 173.768125 45.12 174.03625 46.4375 174.3125 C50.05925855 175.07190099 50.36301868 175.20077803 52.5625 178.5 C53.09886364 184.13181818 53.09886364 184.13181818 52.5625 186.5 C51.2425 187.82 49.9225 189.14 48.5625 190.5 C44.6025 190.5 40.6425 190.5 36.5625 190.5 C36.5625 198.42 36.5625 206.34 36.5625 214.5 C38.5425 214.5 40.5225 214.5 42.5625 214.5 C47.33304673 216.9806843 50.29204418 219.60978747 52.5625 224.5 C53.31631535 230.0997712 53.33553575 234.83499991 50.9375 240 C47.67303523 243.43627871 44.78979751 246.41595104 39.87109375 246.6015625 C38.72833984 246.55128906 38.72833984 246.55128906 37.5625 246.5 C46.09755095 304.77386501 46.09755095 304.77386501 64.48022461 360.51611328 C65.74281262 363.37758438 66.5625 365.32961303 66.5625 368.5 C67.2225 368.5 67.8825 368.5 68.5625 368.5 C68.65273438 367.7265625 68.74296875 366.953125 68.8359375 366.15625 C69.61139617 362.25394184 70.81228045 358.71103256 72.13916016 354.96826172 C81.83366377 327.51931552 86.37465171 299.18943489 90.5625 270.5 C88.67917969 270.30277344 88.67917969 270.30277344 86.7578125 270.1015625 C79.99954104 269.39381744 76.11523988 265.30976046 71.859375 260.37890625 C67.46279693 254.00916513 67.90367852 246.94975061 68.5625 239.5 C70.26712626 232.7462276 75.06442167 228.47756769 80.5625 224.5 C84.37135578 222.41419803 87.27228165 222.4471069 91.5625 222.5 C90.97082031 221.78457031 90.37914062 221.06914062 89.76953125 220.33203125 C77.89281457 205.35535589 75.05131163 190.28191257 76.5625 171.5 C78.1295843 161.92737652 82.50958895 153.94765342 88.5625 146.5 C89.18125 145.67757812 89.8 144.85515625 90.4375 144.0078125 C100.37916423 132.27518669 114.6098751 126.93488154 129.578125 125.65625 C145.71351631 125.02348956 160.15325515 130.3869727 172.09179688 141.08789062 C182.5764675 151.15484529 188.53611693 164.46293014 188.90600586 178.91308594 C189.07391206 194.37086912 186.4837122 206.1572597 176.5625 218.5 C175.55920455 219.83085537 174.55815004 221.16341525 173.5625 222.5 C174.14257812 222.52578125 174.72265625 222.5515625 175.3203125 222.578125 C182.66925942 223.11171191 186.85374566 225.45299822 191.8125 230.9375 C196.8583284 236.78360764 197.00782566 242.56961209 196.8671875 250.0546875 C196.25677648 256.95702746 193.63689822 260.74207329 188.625 265.375 C183.92906804 269.19261876 180.61498704 270.59033563 174.5625 270.5 C179.63413341 305.24392728 186.67411483 338.410779 198.5625 371.5 C198.91836182 372.53229736 199.27422363 373.56459473 199.64086914 374.62817383 C199.97078857 375.53591553 200.30070801 376.44365723 200.640625 377.37890625 C201.05489746 378.54401733 201.05489746 378.54401733 201.47753906 379.73266602 C202.43344003 381.67858417 202.43344003 381.67858417 204.58227539 382.33251953 C205.96150678 382.57219952 207.34463643 382.7903052 208.73046875 382.98828125 C210.5625 383.5 210.5625 383.5 212.4375 386.375 C213.519307 389.62718229 213.94953288 392.92722813 214.4375 396.3125 C216.46593159 409.43187205 223.98916008 418.26152047 234.43017578 425.94750977 C235.79598848 426.93070803 237.16798663 427.90537753 238.54638672 428.87084961 C243.47395234 432.32290468 243.47395234 432.32290468 244.5625 434.5 C244.86239442 438.8689447 244.84072537 443.24698722 244.875 447.625 C244.90400391 448.83671875 244.93300781 450.0484375 244.96289062 451.296875 C245.02233368 459.69206402 244.1860554 465.36496859 238.59765625 471.7421875 C237.94667969 472.28101563 237.29570312 472.81984375 236.625 473.375 C235.97660156 473.92929687 235.32820313 474.48359375 234.66015625 475.0546875 C229.11311492 478.87667129 224.05857873 478.77664467 217.53979492 478.72705078 C216.03177307 478.72748886 216.03177307 478.72748886 214.49328613 478.72793579 C211.17642531 478.72654452 207.85979024 478.71099266 204.54296875 478.6953125 C202.24083072 478.69158165 199.93869109 478.68873502 197.6365509 478.68673706 C191.58175257 478.67910627 185.52705041 478.65946243 179.47229004 478.6373291 C173.2920868 478.61685881 167.111868 478.6077328 160.93164062 478.59765625 C148.80855153 478.5762161 136.68553377 478.54208674 124.5625 478.5 C124.58860352 480.0459082 124.58860352 480.0459082 124.61523438 481.62304688 C124.62930891 482.98827716 124.64295839 484.35351187 124.65625 485.71875 C124.67510254 486.73533691 124.67510254 486.73533691 124.69433594 487.77246094 C124.74427047 494.61349144 123.35950085 498.5686964 118.69140625 503.4609375 C112.02861547 509.63252064 106.86723449 510.79780731 97.97966003 510.76742554 C97.00914697 510.77195665 96.03863392 510.77648776 95.03871137 510.78115618 C91.78381594 510.79382531 88.5290873 510.79217817 85.27416992 510.79052734 C82.94161259 510.79651102 80.60905725 510.8033162 78.27650452 510.81088257 C71.93761206 510.82856623 65.59877358 510.83323896 59.25985885 510.83451414 C53.96909238 510.83641252 48.6783385 510.84376937 43.38757688 510.85085833 C31.61821567 510.86650227 19.84887787 510.87219544 8.07950719 510.87084763 C7.37353105 510.87076772 6.66755491 510.8706878 5.94018555 510.87060547 C5.23334522 510.87052371 4.5265049 510.87044195 3.79824517 510.87035771 C-7.65477385 510.86954496 -19.10766131 510.88868028 -30.56064228 510.9168822 C-42.32653769 510.94562551 -54.09236898 510.95942169 -65.85830039 510.95769465 C-72.46154555 510.95718459 -79.06464184 510.96289236 -85.66785622 510.98405075 C-91.87885178 511.00340864 -98.08955609 511.00357408 -104.3005619 510.98901749 C-106.57897873 510.98692526 -108.85741367 510.99165482 -111.13579941 511.0037384 C-114.24877848 511.01917775 -117.36075165 511.00989065 -120.47370911 510.99447632 C-121.37304147 511.00476344 -122.27237383 511.01505057 -123.19895869 511.02564943 C-130.15981707 510.94960279 -135.40816002 509.15463068 -140.6796875 504.53515625 C-141.21851563 503.88417969 -141.75734375 503.23320312 -142.3125 502.5625 C-142.86679688 501.91410156 -143.42109375 501.26570313 -143.9921875 500.59765625 C-147.31672992 495.77257712 -147.70534387 491.42872489 -147.5625 485.6875 C-147.55347656 484.99462891 -147.54445313 484.30175781 -147.53515625 483.58789062 C-147.51176157 481.89177605 -147.47589641 480.19584129 -147.4375 478.5 C-149.34644043 478.51332367 -149.34644043 478.51332367 -151.29394531 478.5269165 C-163.29977795 478.60807855 -175.30555477 478.66800218 -187.31159973 478.70724869 C-193.48372857 478.72810418 -199.65563555 478.75638522 -205.82763672 478.80175781 C-211.78635839 478.84528731 -217.74486693 478.86915244 -223.70373535 478.87950897 C-225.97468418 478.88688751 -228.24562163 478.90129607 -230.51647949 478.92292023 C-233.70264701 478.95204786 -236.88793905 478.95595198 -240.07421875 478.95410156 C-241.00858261 478.96848267 -241.94294647 478.98286377 -242.90562439 478.99768066 C-250.01546664 478.95313631 -255.29054721 477.25769556 -260.6796875 472.53515625 C-261.21851563 471.88417969 -261.75734375 471.23320312 -262.3125 470.5625 C-262.86679687 469.91410156 -263.42109375 469.26570313 -263.9921875 468.59765625 C-268.39997151 462.20041297 -267.83948596 455.48951551 -267.875 448 C-267.90787109 446.77667969 -267.94074219 445.55335938 -267.97460938 444.29296875 C-268.02839736 435.34460375 -268.02839736 435.34460375 -265.30859375 431.45703125 C-264.36113281 430.81121094 -263.41367187 430.16539062 -262.4375 429.5 C-261.41914063 428.70980469 -260.40078125 427.91960937 -259.3515625 427.10546875 C-258.25574718 426.29874671 -257.15937807 425.49277646 -256.0625 424.6875 C-244.85789453 416.21826158 -239.22248885 408.09776088 -236.9375 394.1875 C-236.84307617 393.49333984 -236.74865234 392.79917969 -236.65136719 392.08398438 C-236.1665255 388.91635199 -235.58666455 386.7098474 -233.71875 384.08203125 C-230.96248362 382.17057939 -228.7235924 381.96129954 -225.4375 381.5 C-211.4125034 345.43324948 -202.34756607 308.88137818 -197.4375 270.5 C-198.69304687 270.36851562 -199.94859375 270.23703125 -201.2421875 270.1015625 C-208.00045896 269.39381744 -211.88476012 265.30976046 -216.140625 260.37890625 C-220.53720307 254.00916513 -220.09632148 246.94975061 -219.4375 239.5 C-217.73287374 232.7462276 -212.93557833 228.47756769 -207.4375 224.5 C-203.62864422 222.41419803 -200.72771835 222.4471069 -196.4375 222.5 C-196.95699219 221.83355469 -197.47648437 221.16710937 -198.01171875 220.48046875 C-209.63062133 205.12461783 -213.10759438 190.51443521 -211.4375 171.5 C-209.84986429 161.96616737 -205.49407026 153.9521558 -199.4375 146.5 C-198.81875 145.67757812 -198.2 144.85515625 -197.5625 144.0078125 C-187.62180279 132.27632793 -173.39258475 126.93583262 -158.42578125 125.65625 C-141.60271183 124.99716795 -127.56163656 131.44953217 -114.9140625 142.12988281 C-104.44801987 151.84142898 -99.41827909 165.67443863 -98.85009766 179.63598633 C-98.65183618 194.73861884 -101.81946744 206.53443816 -111.4375 218.5 C-112.44079545 219.83085537 -113.44184996 221.16341525 -114.4375 222.5 C-113.85742188 222.52578125 -113.27734375 222.5515625 -112.6796875 222.578125 C-105.33074058 223.11171191 -101.14625434 225.45299822 -96.1875 230.9375 C-91.1416716 236.78360764 -90.99217434 242.56961209 -91.1328125 250.0546875 C-91.74322352 256.95702746 -94.36310178 260.74207329 -99.375 265.375 C-104.07093196 269.19261876 -107.38501296 270.59033563 -113.4375 270.5 C-108.80315616 302.24821452 -103.04541123 332.8698131 -92.15258789 363.15698242 C-91.4375 365.5 -91.4375 365.5 -91.4375 368.5 C-90.7775 368.5 -90.1175 368.5 -89.4375 368.5 C-89.31004395 367.77522461 -89.18258789 367.05044922 -89.05126953 366.30371094 C-88.45791508 363.59325648 -87.64411812 361.2142719 -86.6171875 358.640625 C-72.4389468 322.43847682 -66.06825719 284.79705171 -60.4375 246.5 C-61.52417969 246.38269531 -62.61085937 246.26539063 -63.73046875 246.14453125 C-68.65313166 245.28864149 -69.96427769 243.97322231 -73.4375 240.5 C-76.53292285 235.62972718 -76.0333585 230.05638055 -75.4375 224.5 C-73.16704418 219.60978747 -70.20804673 216.9806843 -65.4375 214.5 C-63.4575 214.5 -61.4775 214.5 -59.4375 214.5 C-59.4375 206.58 -59.4375 198.66 -59.4375 190.5 C-63.3975 190.5 -67.3575 190.5 -71.4375 190.5 C-75.4375 186.5 -75.4375 186.5 -75.96875 184.5 C-75.91395451 180.99308832 -75.79969478 179.04329217 -73.8125 176.0625 C-71.00522408 174.21560795 -68.73224551 173.96487505 -65.4375 173.5 C-65.91171387 172.44087402 -66.38592773 171.38174805 -66.87451172 170.29052734 C-68.64039184 166.34453572 -70.40253291 162.39688367 -72.16357422 158.44873047 C-72.92493134 156.74319992 -73.68728911 155.03811569 -74.45068359 153.33349609 C-75.55051568 150.87715663 -76.64668798 148.41921175 -77.7421875 145.9609375 C-78.25167435 144.82620499 -78.25167435 144.82620499 -78.77145386 143.66854858 C-82.38057846 135.54929532 -85.40835885 127.92052985 -82.6796875 119.03125 C-79.71118431 112.01903773 -76.10862326 107.22745879 -69.3684082 103.55615234 C-63.29776834 101.36859815 -56.73917604 101.99499838 -50.375 102.1875 C-48.92256467 102.21262864 -47.4700872 102.23543372 -46.01757812 102.25585938 C-42.4889731 102.30618175 -38.96632301 102.40405013 -35.4375 102.5 C-35.4375 94.58 -35.4375 86.66 -35.4375 78.5 C-37.7475 78.5825 -40.0575 78.665 -42.4375 78.75 C-50.00043918 78.82465562 -54.87487144 77.89940056 -60.3984375 72.62890625 C-66.78766591 65.73114742 -67.91788584 60.29636848 -67.7421875 50.9453125 C-67.04689797 43.08319245 -63.38995981 38.95041296 -57.53515625 33.9453125 C-52.67930429 30.5995672 -48.40659239 30.23115177 -42.625 30.375 C-41.58569336 30.38853516 -41.58569336 30.38853516 -40.52539062 30.40234375 C-38.82927605 30.42573843 -37.13334129 30.46160359 -35.4375 30.5 C-35.48390625 29.51 -35.5303125 28.52 -35.578125 27.5 C-36.0583247 13.13766356 -36.0583247 13.13766356 -31.4375 7.5 C-23.12599059 -1.21060068 -11.72950562 -5.19778092 0 0 Z " fill="#686DAC" transform="translate(267.4375,1.5)"/>
<path d="M0 0 C10.48467063 10.06695466 16.44432005 23.37503951 16.81420898 37.82519531 C16.98211518 53.28297849 14.39191532 65.06936908 4.47070312 77.41210938 C3.46740768 78.74296475 2.46635316 80.07552463 1.47070312 81.41210938 C2.05078125 81.43789062 2.63085938 81.46367187 3.22851562 81.49023438 C10.57746255 82.02382128 14.76194879 84.36510759 19.72070312 89.84960938 C24.76653153 95.69571701 24.91602879 101.48172146 24.77539062 108.96679688 C24.16497961 115.86913684 21.54510135 119.65418266 16.53320312 124.28710938 C11.83727116 128.10472814 8.52319017 129.502445 2.47070312 129.41210938 C7.54233654 164.15603665 14.58231795 197.32288838 26.47070312 230.41210938 C26.82656494 231.44440674 27.18242676 232.4767041 27.54907227 233.5402832 C28.04395142 234.90189575 28.04395142 234.90189575 28.54882812 236.29101562 C28.96310059 237.45612671 28.96310059 237.45612671 29.38574219 238.64477539 C30.34164316 240.59069355 30.34164316 240.59069355 32.49047852 241.24462891 C33.86970991 241.48430889 35.25283956 241.70241458 36.63867188 241.90039062 C38.47070312 242.41210938 38.47070312 242.41210938 40.34570312 245.28710938 C41.42751012 248.53929167 41.85773601 251.83933751 42.34570312 255.22460938 C44.37413471 268.34398142 51.89736321 277.17362984 62.33837891 284.85961914 C63.7041916 285.8428174 65.07618975 286.81748691 66.45458984 287.78295898 C71.38215547 291.23501406 71.38215547 291.23501406 72.47070312 293.41210938 C72.92657487 297.43897648 72.95663911 299.64779587 70.75727844 303.10710144 C66.39291147 307.12947317 60.05470148 306.05982861 54.51049805 305.97973633 C53.19303589 305.98046646 51.87557373 305.98119659 50.51818848 305.98194885 C46.91288507 305.98338171 43.30841575 305.95401448 39.70330596 305.91907907 C35.93305058 305.8877931 32.16277544 305.88488309 28.39241028 305.87895203 C21.25607524 305.86342006 14.12012381 305.82240072 6.98395759 305.77220458 C-1.14170523 305.71629068 -9.2673865 305.68881953 -17.39319384 305.6637274 C-34.10545265 305.61148399 -50.81732578 305.52355473 -67.52929688 305.41210938 C-68.81778611 302.89807164 -70.09921717 300.38082509 -71.37695312 297.86132812 C-71.73809204 297.15842651 -72.09923096 296.4555249 -72.47131348 295.73132324 C-77.4478757 285.88323747 -79.90080402 276.1316365 -80.25585938 265.05664062 C-80.34531101 262.18305653 -80.34531101 262.18305653 -82.52929688 259.41210938 C-84.49484047 259.08774093 -84.49484047 259.08774093 -86.70898438 259.01757812 C-90.15380731 258.34587217 -91.28244951 257.72265731 -93.49902344 254.93408203 C-95.39043978 251.5928553 -97.04757235 248.21150333 -98.65429688 244.72460938 C-99.24210937 243.55220703 -99.82992188 242.37980469 -100.43554688 241.171875 C-103.99527074 233.77249594 -105.08047739 229.64837196 -102.70068359 221.61499023 C-102.37342285 220.71143799 -102.04616211 219.80788574 -101.70898438 218.87695312 C-101.1585144 217.31690552 -101.1585144 217.31690552 -100.59692383 215.7253418 C-100.20335693 214.6113501 -99.80979004 213.4973584 -99.40429688 212.34960938 C-90.18524432 185.30203653 -85.64293843 157.59318074 -81.52929688 129.41210938 C-82.78484375 129.280625 -84.04039062 129.14914062 -85.33398438 129.01367188 C-92.09225584 128.30592681 -95.97655699 124.22186983 -100.23242188 119.29101562 C-104.62899994 112.92127451 -104.18811836 105.86185999 -103.52929688 98.41210938 C-101.82467061 91.65833697 -97.02737521 87.38967707 -91.52929688 83.41210938 C-87.7204411 81.3263074 -84.81951523 81.35921627 -80.52929688 81.41210938 C-81.12097656 80.69667969 -81.71265625 79.98125 -82.32226562 79.24414062 C-94.19898231 64.26746526 -97.04048524 49.19402195 -95.52929688 30.41210938 C-93.96221258 20.83948589 -89.58220793 12.85976279 -83.52929688 5.41210938 C-82.91054688 4.5896875 -82.29179687 3.76726562 -81.65429688 2.91992188 C-71.8846513 -8.60969661 -58.03324383 -13.86138807 -43.35742188 -15.43164062 C-26.90183118 -16.10329739 -12.22007544 -10.9532661 0 0 Z " fill="#ECEAFD" transform="translate(439.529296875,142.587890625)"/>
<path d="M0 0 C10.46604263 9.71154617 15.49578341 23.54455581 16.06396484 37.50610352 C16.26222632 52.60873603 13.09459506 64.40455535 3.4765625 76.37011719 C2.47326705 77.70097256 1.47221254 79.03353244 0.4765625 80.37011719 C1.05664062 80.39589844 1.63671875 80.42167969 2.234375 80.44824219 C9.58332192 80.98182909 13.76780816 83.3231154 18.7265625 88.80761719 C23.7723909 94.65372483 23.92188816 100.43972927 23.78125 107.92480469 C23.17083898 114.82714465 20.55096072 118.61219048 15.5390625 123.24511719 C10.84313054 127.06273595 7.52904954 128.46045282 1.4765625 128.37011719 C5.87373506 158.49355699 10.931596 187.9887523 21.36425781 216.70410156 C21.78288086 217.88294922 22.20150391 219.06179688 22.6328125 220.27636719 C23.01244141 221.31083984 23.39207031 222.3453125 23.78320312 223.41113281 C25.58101932 231.08350333 21.221479 237.89051204 17.9765625 244.62011719 C17.48414063 245.72097656 16.99171875 246.82183594 16.484375 247.95605469 C12.6777061 255.82059399 12.6777061 255.82059399 9.1328125 257.44238281 C6.6953125 257.91699219 6.6953125 257.91699219 4.41210938 258.05273438 C3.77337891 258.1574707 3.13464844 258.26220703 2.4765625 258.37011719 C0.00239444 262.08136928 0.03783117 265.24805522 -0.2734375 269.55761719 C-1.29221555 280.67207014 -4.67542904 290.37315365 -10.1315918 300.10424805 C-10.58003952 300.9057579 -11.02848724 301.70726776 -11.49052429 302.5330658 C-11.83138565 303.13929276 -12.17224701 303.74551971 -12.5234375 304.37011719 C-30.05614745 304.44017487 -47.58881376 304.49308943 -65.12163162 304.5255537 C-73.26228767 304.54102758 -81.40285678 304.56212699 -89.54345703 304.59643555 C-96.63818346 304.62632204 -103.73284694 304.64568841 -110.82763457 304.65238267 C-114.58485821 304.65629623 -118.34190173 304.66550426 -122.09906769 304.68730736 C-126.2917126 304.71144059 -130.48404369 304.71208767 -134.67675781 304.71069336 C-135.92472641 304.72147919 -137.17269501 304.73226501 -138.45848083 304.74337769 C-139.59989029 304.73925369 -140.74129974 304.7351297 -141.91729736 304.73088074 C-142.90914661 304.73364612 -143.90099586 304.7364115 -144.92290115 304.73926067 C-147.95634537 304.30866636 -149.31564633 303.45981063 -151.5234375 301.37011719 C-152.30859375 299.28417969 -152.30859375 299.28417969 -152.5859375 296.99511719 C-152.70066406 296.24488281 -152.81539062 295.49464844 -152.93359375 294.72167969 C-151.94877024 289.0753582 -145.51793127 285.76549469 -141.1484375 282.55761719 C-129.94383203 274.08837876 -124.30842635 265.96787807 -122.0234375 252.05761719 C-121.92901367 251.36345703 -121.83458984 250.66929687 -121.73730469 249.95410156 C-121.252463 246.78646918 -120.67260205 244.57996458 -118.8046875 241.95214844 C-116.04842112 240.04069658 -113.8095299 239.83141673 -110.5234375 239.37011719 C-96.4984409 203.30336667 -87.43350357 166.75149537 -82.5234375 128.37011719 C-83.77898437 128.23863281 -85.03453125 128.10714844 -86.328125 127.97167969 C-93.08639646 127.26393463 -96.97069762 123.17987764 -101.2265625 118.24902344 C-105.62314057 111.87928232 -105.18225898 104.8198678 -104.5234375 97.37011719 C-102.81881124 90.61634479 -98.02151583 86.34768488 -92.5234375 82.37011719 C-88.71458172 80.28431521 -85.81365585 80.31722408 -81.5234375 80.37011719 C-82.04292969 79.70367187 -82.56242187 79.03722656 -83.09765625 78.35058594 C-94.71655883 62.99473502 -98.19353188 48.3845524 -96.5234375 29.37011719 C-94.93580179 19.83628456 -90.58000776 11.82227299 -84.5234375 4.37011719 C-83.9046875 3.54769531 -83.2859375 2.72527344 -82.6484375 1.87792969 C-72.87954159 -9.65080409 -59.0299241 -14.90190948 -44.35546875 -16.47363281 C-27.1508095 -17.17514797 -12.94155542 -10.92860568 0 0 Z " fill="#ECEAFC" transform="translate(152.5234375,143.6298828125)"/>
<path d="M0 0 C21.45 0 42.9 0 65 0 C66.29175073 5.81287828 67.44412167 11.45140772 68.26171875 17.3203125 C68.49095139 18.9075093 68.72104891 20.49458138 68.9519043 22.08154297 C69.07109222 22.9034613 69.19028015 23.72537964 69.31307983 24.57220459 C74.76495531 61.74307295 83.22295563 98.16155457 100 132 C100.60835693 133.23967529 100.60835693 133.23967529 101.22900391 134.50439453 C103.48300636 139.09018395 105.76626398 143.65988672 108.08959961 148.2109375 C108.73573828 149.48068923 109.36798326 150.7575539 109.99047852 152.0390625 C111.07115357 154.22842678 111.07115357 154.22842678 113 157 C113.31481698 159.73715877 113.55145631 162.44231791 113.75 165.1875 C115.76876199 187.01481299 127.07063064 202.49695983 142.46875 217.40625 C144.56319265 219.5861801 144.97149899 220.78624241 145.375 223.8125 C145 227 145 227 143.03920841 229.6603775 C138.92474556 232.82774497 136.05266238 232.69621229 130.99766541 232.62145996 C130.08966692 232.62784878 129.18166844 232.6342376 128.24615484 232.64082003 C125.20263636 232.65608448 122.16041658 232.63559887 119.11694336 232.61523438 C116.93552722 232.6187351 114.75411364 232.62439312 112.57270813 232.63204956 C106.64713563 232.64631317 100.72202629 232.62922072 94.79649806 232.60576439 C88.60038203 232.5856809 82.40428571 232.5915336 76.20814514 232.59387207 C65.13660264 232.59381504 54.06526082 232.57003718 42.99377609 232.53580862 C32.95438922 232.50528982 22.91516236 232.49512399 12.87573242 232.50097656 C-0.02647966 232.5084494 -12.92858198 232.50109669 -25.83077812 232.47932434 C-30.7593343 232.47113966 -35.6878488 232.46844275 -40.61641121 232.47001648 C-46.41700821 232.47089392 -52.21737851 232.45671706 -58.01791573 232.43078995 C-60.14964194 232.42361376 -62.28139225 232.42155147 -64.4131279 232.42490768 C-67.31721614 232.42860849 -70.22063761 232.41392361 -73.12464905 232.39440918 C-74.39774188 232.40240107 -74.39774188 232.40240107 -75.69655377 232.41055441 C-80.04214221 232.35998038 -82.87325426 232.19177517 -86 229 C-86.33 229.99 -86.66 230.98 -87 232 C-100.29130632 232.0927682 -113.58253533 232.16379995 -126.87409973 232.20724869 C-133.04622857 232.22810418 -139.21813555 232.25638522 -145.39013672 232.30175781 C-151.34885839 232.34528731 -157.30736693 232.36915244 -163.26623535 232.37950897 C-165.53718418 232.38688751 -167.80812163 232.40129607 -170.07897949 232.42292023 C-173.26514701 232.45204786 -176.45043905 232.45595198 -179.63671875 232.45410156 C-180.57108261 232.46848267 -181.50544647 232.48286377 -182.46812439 232.49768066 C-189.57796664 232.45313631 -194.85304721 230.75769556 -200.2421875 226.03515625 C-201.05042969 225.05869141 -201.05042969 225.05869141 -201.875 224.0625 C-202.42929688 223.41410156 -202.98359375 222.76570312 -203.5546875 222.09765625 C-206.26682674 218.1613893 -207.25366569 214.67375412 -207.1953125 209.91796875 C-207.18886719 208.98662109 -207.18242187 208.05527344 -207.17578125 207.09570312 C-207.15902344 206.13599609 -207.14226562 205.17628906 -207.125 204.1875 C-207.11597656 203.20845703 -207.10695312 202.22941406 -207.09765625 201.22070312 C-207.07417182 198.81354939 -207.0413284 196.40690257 -207 194 C-206.44230423 194.81139938 -205.88460846 195.62279877 -205.31001282 196.45878601 C-201.70587206 200.01564489 -197.63857298 199.62097674 -192.81062317 199.68556213 C-191.56624985 199.67693649 -190.32187653 199.66831085 -189.03979492 199.65942383 C-187.72233276 199.66990753 -186.40487061 199.68039124 -185.04748535 199.69119263 C-181.4423516 199.7193195 -177.83781322 199.71687113 -174.23260283 199.70889878 C-170.46221514 199.70577227 -166.69201659 199.73081221 -162.92170715 199.75285339 C-155.78552225 199.79029743 -148.64952791 199.80244158 -141.51325446 199.8054778 C-133.3874456 199.81016826 -125.26182768 199.8430911 -117.13610303 199.87837565 C-100.4240801 199.95031272 -83.71217476 199.9868273 -67 200 C-66.69441162 199.22817383 -66.38882324 198.45634766 -66.07397461 197.66113281 C-64.99029351 194.97594891 -63.79253888 192.37101742 -62.5625 189.75 C-61.70087085 187.83667645 -60.84626648 185.92016792 -60 184 C-59.69578125 183.31292969 -59.3915625 182.62585938 -59.078125 181.91796875 C-56.76120268 175.92470541 -56.34093856 169.75374044 -55.99731445 163.38256836 C-55.6728775 159.21590289 -55.29670086 157.38516444 -52.66796875 153.97265625 C-49.26482082 151.45641949 -47.1359858 151.5945112 -43 152 C-42.65388672 150.80890625 -42.65388672 150.80890625 -42.30078125 149.59375 C-40.6418581 145.01053889 -38.42873663 140.82103867 -36.1875 136.5 C-32.73480667 129.708681 -29.66156222 123.01639771 -27.265625 115.76953125 C-26.29438188 112.87678554 -25.26723794 110.04482947 -24.171875 107.19921875 C-10.96339542 72.66454819 -5.6933698 36.43756669 0 0 Z " fill="#9C9FDE" transform="translate(207,248)"/>
<path d="M0 0 C10.89 0 21.78 0 33 0 C33.50789062 3.22394531 34.01578125 6.44789063 34.5390625 9.76953125 C40.53297367 47.54429369 47.09431773 84.31907943 62.06738281 119.75585938 C63.06096347 122.14669535 63.9983945 124.55604315 64.9375 126.96875 C66.92751676 131.96603211 69.28185821 136.72450741 71.75 141.5 C72.56094059 143.07103852 73.36841946 144.64387036 74.171875 146.21875 C74.5234668 146.89873047 74.87505859 147.57871094 75.23730469 148.27929688 C76 150 76 150 76 152 C76.61488281 152.02578125 77.22976563 152.0515625 77.86328125 152.078125 C78.67152344 152.13484375 79.47976563 152.1915625 80.3125 152.25 C81.11300781 152.29640625 81.91351563 152.3428125 82.73828125 152.390625 C85 153 85 153 86.7421875 154.53125 C88.50985855 158.00071617 88.57613026 161.43379837 88.8125 165.25 C89.7269293 175.91580775 92.76679633 185.5652911 98.1953125 194.83203125 C100 198 100 198 100 200 C117.51560198 199.96283314 135.0309595 199.90297231 152.54638195 199.81609726 C160.67911803 199.77628863 168.81175708 199.74390545 176.94458008 199.72900391 C184.03320072 199.71599678 191.12160806 199.68905636 198.21010858 199.64538693 C201.96343542 199.6227507 205.71649897 199.60709059 209.46990013 199.60811615 C213.66016733 199.609 217.84965662 199.57877703 222.03979492 199.54589844 C223.28416824 199.5509288 224.52854156 199.55595917 225.81062317 199.56114197 C226.95340729 199.54722916 228.09619141 199.53331635 229.27360535 199.51898193 C230.2645328 199.51529476 231.25546026 199.51160759 232.27641582 199.50780869 C235.72236194 198.86531657 237.45064157 197.34163864 240 195 C240.11760715 198.16634636 240.18771024 201.33212074 240.25 204.5 C240.28351563 205.386875 240.31703125 206.27375 240.3515625 207.1875 C240.45964982 214.53743794 238.9119697 219.6769968 234.03515625 225.2421875 C233.38417969 225.78101563 232.73320312 226.31984375 232.0625 226.875 C231.41410156 227.42929687 230.76570313 227.98359375 230.09765625 228.5546875 C224.55061492 232.37667129 219.49607873 232.27664467 212.97729492 232.22705078 C211.46927307 232.22748886 211.46927307 232.22748886 209.93078613 232.22793579 C206.61392531 232.22654452 203.29729024 232.21099266 199.98046875 232.1953125 C197.67833072 232.19158165 195.37619109 232.18873502 193.0740509 232.18673706 C187.01925257 232.17910627 180.96455041 232.15946243 174.90979004 232.1373291 C168.7295868 232.11685881 162.549368 232.1077328 156.36914062 232.09765625 C144.24605153 232.0762161 132.12303377 232.04208674 120 232 C120.01740234 233.03060547 120.03480469 234.06121094 120.05273438 235.12304688 C120.06680891 236.48827716 120.08045839 237.85351187 120.09375 239.21875 C120.11260254 240.23533691 120.11260254 240.23533691 120.13183594 241.27246094 C120.18177047 248.11349144 118.79700085 252.0686964 114.12890625 256.9609375 C107.46611547 263.13252064 102.30473449 264.29780731 93.41716003 264.26742554 C91.96139044 264.27422221 91.96139044 264.27422221 90.47621137 264.28115618 C87.22131594 264.29382531 83.9665873 264.29217817 80.71166992 264.29052734 C78.37911259 264.29651102 76.04655725 264.3033162 73.71400452 264.31088257 C67.37511206 264.32856623 61.03627358 264.33323896 54.69735885 264.33451414 C49.40659238 264.33641252 44.1158385 264.34376937 38.82507688 264.35085833 C27.05571567 264.36650227 15.28637787 264.37219544 3.51700719 264.37084763 C2.45804298 264.37072776 2.45804298 264.37072776 1.37768555 264.37060547 C0.67084522 264.37052371 -0.0359951 264.37044195 -0.76425483 264.37035771 C-12.21727385 264.36954496 -23.67016131 264.38868028 -35.12314228 264.4168822 C-46.88903769 264.44562551 -58.65486898 264.45942169 -70.42080039 264.45769465 C-77.02404555 264.45718459 -83.62714184 264.46289236 -90.23035622 264.48405075 C-96.44135178 264.50340864 -102.65205609 264.50357408 -108.8630619 264.48901749 C-111.14147873 264.48692526 -113.41991367 264.49165482 -115.69829941 264.5037384 C-118.81127848 264.51917775 -121.92325165 264.50989065 -125.03620911 264.49447632 C-125.93554147 264.50476344 -126.83487383 264.51505057 -127.76145869 264.52564943 C-134.72231707 264.44960279 -139.97066002 262.65463068 -145.2421875 258.03515625 C-145.78101563 257.38417969 -146.31984375 256.73320312 -146.875 256.0625 C-147.42929688 255.41410156 -147.98359375 254.76570312 -148.5546875 254.09765625 C-152.45054866 248.44339289 -152.24723646 243.33998445 -152.125 236.6875 C-152.11597656 235.75615234 -152.10695313 234.82480469 -152.09765625 233.86523438 C-152.07418263 231.5765564 -152.04134729 229.28841328 -152 227 C-151.04100973 227.97428577 -151.04100973 227.97428577 -150.06264591 228.96825409 C-145.92632971 231.71226818 -142.8538309 231.55912314 -137.99766541 231.50793457 C-136.63566768 231.51729451 -136.63566768 231.51729451 -135.24615484 231.52684355 C-132.20282042 231.54280172 -129.16028377 231.53015813 -126.11694336 231.51757812 C-123.93552686 231.52299794 -121.75411402 231.5301198 -119.57270813 231.53881836 C-113.64721367 231.55707015 -107.72199745 231.54997666 -101.79649806 231.53730202 C-95.60037271 231.52718533 -89.40427141 231.53656388 -83.20814514 231.54284668 C-72.13664111 231.55059287 -61.06526039 231.5381522 -49.99377609 231.51780933 C-39.95436543 231.49993402 -29.91513975 231.50304633 -19.87573242 231.52148438 C-8.21656134 231.54281212 3.44249398 231.55086061 15.10168165 231.53903532 C21.27330337 231.53279227 27.44479763 231.53198725 33.61641121 231.54518127 C39.41704209 231.55671577 45.21732277 231.54875773 51.01791573 231.52560425 C53.14964719 231.52030459 55.28140802 231.52185229 57.4131279 231.53065491 C60.31736934 231.54154404 63.22048016 231.527927 66.12464905 231.50793457 C66.97337761 231.51685746 67.82210616 231.52578034 68.69655377 231.53497362 C72.34542316 231.48606385 74.53528283 231.34410954 77.51174068 229.14012909 C79.16435795 227.03361162 79.16435795 227.03361162 79.6875 224.25 C78.45611294 218.42889752 73.96747794 214.88103339 69.77734375 210.875 C60.75934478 202.21277114 55.31765318 192.69162265 51 181 C50.64550781 180.0821875 50.29101562 179.164375 49.92578125 178.21875 C48.52232409 173.33921963 48.22448065 168.41273418 47.7890625 163.36914062 C47.71429688 162.59376953 47.63953125 161.81839844 47.5625 161.01953125 C47.50191406 160.31932861 47.44132813 159.61912598 47.37890625 158.89770508 C47.06124426 156.67906525 47.06124426 156.67906525 45 154 C44.01 153.34 43.02 152.68 42 152 C42.66 152 43.32 152 44 152 C43.61779297 151.2565332 43.23558594 150.51306641 42.84179688 149.74707031 C35.16535821 134.75907786 27.73899286 119.85936736 22 104 C21.7328418 103.27264648 21.46568359 102.54529297 21.19042969 101.79589844 C16.46535174 88.79756439 13.11005852 75.46456036 10 62 C9.81727539 61.21592773 9.63455078 60.43185547 9.44628906 59.62402344 C5.73203954 43.35517613 3.59855427 26.74012783 1.171875 10.2421875 C1.05334167 9.44102509 0.93480835 8.63986267 0.81268311 7.81442261 C0 2.23745911 0 2.23745911 0 0 Z " fill="#8286C6" transform="translate(272,248)"/>
<path d="M0 0 C5.61857754 1.3620794 8.77713586 5.47303878 12 10 C14.69092458 16.08382948 14.19315939 22.4647739 14 29 C14.9178125 28.95359375 15.835625 28.9071875 16.78125 28.859375 C25.78394661 28.59458981 31.49959059 28.83712129 38.1875 35.0234375 C43.8202033 40.91765916 45.95295878 45.79458711 46.375 53.9375 C46.19302433 61.00243767 43.42540204 65.71178564 38.6875 70.8125 C30.93718446 77.94409287 24.24826426 77.29280755 14 77 C14 84.92 14 92.84 14 101 C17.25875 100.896875 20.5175 100.79375 23.875 100.6875 C31.77994051 100.60701641 38.72728356 100.57494794 45 106 C51.15056839 112.44964465 53.77365146 119.02600435 53.6328125 127.94287109 C52.65359974 136.8203402 47.70655326 145.33661006 44 153.3125 C41.03 159.809375 38.06 166.30625 35 173 C10.58 173 -13.84 173 -39 173 C-45.75362319 159.49275362 -45.75362319 159.49275362 -48.17578125 153.80859375 C-48.69333984 152.59751953 -49.21089844 151.38644531 -49.74414062 150.13867188 C-50.13049683 149.22686157 -50.13049683 149.22686157 -50.5246582 148.29663086 C-51.32569687 146.40635834 -52.13214463 144.51846164 -52.93945312 142.63085938 C-59.907923 126.27736324 -59.907923 126.27736324 -57.24609375 117.51953125 C-54.25554551 110.51813008 -50.67354177 105.72877612 -43.9309082 102.05615234 C-37.86026834 99.86859815 -31.30167604 100.49499838 -24.9375 100.6875 C-23.48506467 100.71262864 -22.0325872 100.73543372 -20.58007812 100.75585938 C-17.0514731 100.80618175 -13.52882301 100.90405013 -10 101 C-10 93.08 -10 85.16 -10 77 C-12.31 77.0825 -14.62 77.165 -17 77.25 C-24.56293918 77.32465562 -29.43737144 76.39940056 -34.9609375 71.12890625 C-41.35016591 64.23114742 -42.48038584 58.79636848 -42.3046875 49.4453125 C-41.60939797 41.58319245 -37.95245981 37.45041296 -32.09765625 32.4453125 C-27.24180429 29.0995672 -22.96909239 28.73115177 -17.1875 28.875 C-16.14819336 28.88853516 -16.14819336 28.88853516 -15.08789062 28.90234375 C-13.39177605 28.92573843 -11.69584129 28.96160359 -10 29 C-10.04640625 28.01 -10.0928125 27.02 -10.140625 26 C-10.4248782 17.43226146 -10.29781638 10.85338776 -4.3984375 4.19140625 C-2.98492221 2.74104578 -1.49855147 1.36231952 0 0 Z " fill="#9C9FDE" transform="translate(242,3)"/>
<path d="M0 0 C9.58505125 8.59140498 17.08168231 20.97141522 18.20849609 34.0324707 C18.78036696 51.35322625 17.2566568 64.81217904 6.015625 78.796875 C5.01232955 80.12773037 4.01127504 81.46029025 3.015625 82.796875 C3.59570312 82.82265625 4.17578125 82.8484375 4.7734375 82.875 C12.12238442 83.40858691 16.30687066 85.74987322 21.265625 91.234375 C26.3114534 97.08048264 26.46095066 102.86648709 26.3203125 110.3515625 C25.70990148 117.25390246 23.09002322 121.03894829 18.078125 125.671875 C13.38219304 129.48949376 10.06811204 130.88721063 4.015625 130.796875 C9.08725841 165.54080228 16.12723983 198.707654 28.015625 231.796875 C28.37148682 232.82917236 28.72734863 233.86146973 29.09399414 234.92504883 C29.42391357 235.83279053 29.75383301 236.74053223 30.09375 237.67578125 C30.50802246 238.84089233 30.50802246 238.84089233 30.93066406 240.02954102 C31.88656503 241.97545917 31.88656503 241.97545917 34.03540039 242.62939453 C35.41463178 242.86907452 36.79776143 243.0871802 38.18359375 243.28515625 C40.015625 243.796875 40.015625 243.796875 41.890625 246.671875 C42.972432 249.92405729 43.40265788 253.22410313 43.890625 256.609375 C45.91905659 269.72874705 53.44228508 278.55839547 63.88330078 286.24438477 C65.24911348 287.22758303 66.62111163 288.20225253 67.99951172 289.16772461 C72.92707734 292.61977968 72.92707734 292.61977968 74.015625 294.796875 C74.4960944 299.04102133 74.58945919 301.04309994 71.96020508 304.49682617 C68.21668356 307.42093829 66.23391492 307.37891265 61.52734375 307.28515625 C60.82414505 307.27808151 60.12094635 307.27100677 59.3964386 307.26371765 C57.16422273 307.23586712 54.93457423 307.1731582 52.703125 307.109375 C51.18428119 307.08427951 49.6653978 307.06146852 48.14648438 307.04101562 C44.43537252 306.98607507 40.72574959 306.89987239 37.015625 306.796875 C37.66402344 306.03375 38.31242187 305.270625 38.98046875 304.484375 C41.21919246 301.94355522 41.21919246 301.94355522 41.578125 298.796875 C40.4427582 292.74158542 34.37395953 289.45867442 29.640625 285.984375 C24.44782571 282.06585988 19.83107434 278.12970765 16.015625 272.796875 C15.61988281 272.24386719 15.22414063 271.69085938 14.81640625 271.12109375 C11.64948473 265.8114967 10.99457729 259.82904515 10.22949219 253.78735352 C9.75892557 250.479569 9.22797467 248.0999559 7.296875 245.34375 C5.05296932 243.55193903 5.05296932 243.55193903 1.98046875 243.53125 C1.00207031 243.28890625 0.02367187 243.0465625 -0.984375 242.796875 C-2.50230656 240.12227325 -3.46315297 237.9227399 -4.421875 235.046875 C-4.7098999 234.24411133 -4.9979248 233.44134766 -5.29467773 232.61425781 C-6.21711349 230.01673474 -7.10146132 227.40806573 -7.984375 224.796875 C-8.57968316 223.09859131 -9.17603157 221.40067189 -9.7734375 219.703125 C-15.971558 201.85246988 -20.76429569 183.8670929 -24.234375 165.296875 C-24.35934357 164.62836517 -24.48431213 163.95985535 -24.61306763 163.27108765 C-29.17755856 138.64814648 -29.17755856 138.64814648 -28.984375 130.796875 C-28.3553125 130.66152344 -27.72625 130.52617187 -27.078125 130.38671875 C-19.44741589 128.46754944 -13.94365656 125.37790973 -9.6015625 118.65625 C-6.30873202 112.07058904 -6.42182349 106.35970123 -7.546875 99.234375 C-10.22447122 92.83142751 -14.2701607 88.28028176 -20.609375 85.359375 C-23.68794527 84.16478449 -26.69537442 83.22126217 -29.984375 82.796875 C-29.18 81.62125 -29.18 81.62125 -28.359375 80.421875 C-27.56458307 79.21559504 -26.77335375 78.00696511 -25.984375 76.796875 C-25.50226563 76.06984375 -25.02015625 75.3428125 -24.5234375 74.59375 C-15.98100016 61.15133592 -12.93794621 46.14345804 -16.046875 30.484375 C-20.02509937 14.74036439 -28.24893234 3.43574552 -41.984375 -5.203125 C-45.58566907 -7.04834251 -49.2310125 -8.69306814 -52.984375 -10.203125 C-52.984375 -10.863125 -52.984375 -11.523125 -52.984375 -12.203125 C-33.5169007 -15.79287203 -15.51400421 -13.06130045 0 0 Z " fill="#D2D2FC" transform="translate(437.984375,141.203125)"/>
<path d="M0 0 C10.46604263 9.71154617 15.49578341 23.54455581 16.06396484 37.50610352 C16.26222632 52.60873603 13.09459506 64.40455535 3.4765625 76.37011719 C2.47326705 77.70097256 1.47221254 79.03353244 0.4765625 80.37011719 C1.05664062 80.39589844 1.63671875 80.42167969 2.234375 80.44824219 C9.58332192 80.98182909 13.76780816 83.3231154 18.7265625 88.80761719 C23.7723909 94.65372483 23.92188816 100.43972927 23.78125 107.92480469 C23.17083898 114.82714465 20.55096072 118.61219048 15.5390625 123.24511719 C10.84313054 127.06273595 7.52904954 128.46045282 1.4765625 128.37011719 C5.87373506 158.49355699 10.931596 187.9887523 21.36425781 216.70410156 C21.78288086 217.88294922 22.20150391 219.06179688 22.6328125 220.27636719 C23.01244141 221.31083984 23.39207031 222.3453125 23.78320312 223.41113281 C25.58101932 231.08350333 21.221479 237.89051204 17.9765625 244.62011719 C17.48414063 245.72097656 16.99171875 246.82183594 16.484375 247.95605469 C12.6777061 255.82059399 12.6777061 255.82059399 9.1328125 257.44238281 C6.6953125 257.91699219 6.6953125 257.91699219 4.41210938 258.05273438 C3.77337891 258.1574707 3.13464844 258.26220703 2.4765625 258.37011719 C0.00239444 262.08136928 0.03783117 265.24805522 -0.2734375 269.55761719 C-1.44344637 282.32193664 -5.87729527 293.42352998 -12.5234375 304.37011719 C-17.8034375 304.37011719 -23.0834375 304.37011719 -28.5234375 304.37011719 C-27.15471319 300.94830641 -25.74557508 297.73370729 -24.1484375 294.43261719 C-20.17298999 285.67016632 -17.48915907 276.95224129 -17.0859375 267.30761719 C-16.85763043 263.1473551 -16.70293469 261.64992164 -14.3984375 258.05761719 C-10.8668809 255.98474701 -8.55320058 255.97504238 -4.5234375 256.37011719 C-4.183125 255.19449219 -4.183125 255.19449219 -3.8359375 253.99511719 C-2.11682817 249.24710094 0.15740971 244.84909167 2.4765625 240.37011719 C0.4965625 240.37011719 -1.4834375 240.37011719 -3.5234375 240.37011719 C-17.43183086 206.56064651 -32.47221137 165.61714289 -31.5234375 128.37011719 C-30.894375 128.23476563 -30.2653125 128.09941406 -29.6171875 127.95996094 C-21.98647839 126.04079163 -16.48271906 122.95115192 -12.140625 116.22949219 C-8.84779452 109.64383123 -8.96088599 103.93294342 -10.0859375 96.80761719 C-12.76353372 90.4046697 -16.8092232 85.85352394 -23.1484375 82.93261719 C-26.22700777 81.73802667 -29.23443692 80.79450436 -32.5234375 80.37011719 C-31.7190625 79.19449219 -31.7190625 79.19449219 -30.8984375 77.99511719 C-30.10364557 76.78883723 -29.31241625 75.5802073 -28.5234375 74.37011719 C-28.04132813 73.64308594 -27.55921875 72.91605469 -27.0625 72.16699219 C-18.22166664 58.25502092 -15.64457438 42.87984001 -18.5703125 26.72558594 C-22.85885331 11.62781317 -31.3153646 0.67729988 -44.5234375 -7.62988281 C-48.12473157 -9.47510032 -51.770075 -11.11982595 -55.5234375 -12.62988281 C-55.5234375 -13.28988281 -55.5234375 -13.94988281 -55.5234375 -14.62988281 C-34.25441245 -18.55183069 -16.60873726 -14.02538833 0 0 Z " fill="#D2D2FC" transform="translate(152.5234375,143.6298828125)"/>
<path d="M0 0 C0.60814545 0.64952385 1.21629089 1.2990477 1.84286499 1.96825409 C6.3776734 4.88658935 10.22600828 4.55505166 15.51416016 4.50793457 C16.58479517 4.51417453 17.65543018 4.5204145 18.75850868 4.52684355 C22.35224949 4.54282037 25.94531645 4.53015036 29.5390625 4.51757812 C32.11293942 4.52299713 34.68681323 4.53011853 37.26068115 4.53881836 C43.52959997 4.55660772 49.79832726 4.55276184 56.06725359 4.5411678 C61.16197818 4.53213535 66.25664909 4.53090865 71.35137939 4.53526306 C72.43891477 4.53618246 72.43891477 4.53618246 73.54842055 4.53712043 C75.02127824 4.53839933 76.49413591 4.53969618 77.96699357 4.5410108 C91.77898355 4.55241781 105.59086734 4.53930102 119.4028399 4.51780933 C131.25494124 4.49993821 143.10688587 4.50304228 154.95898438 4.52148438 C168.72144082 4.54288898 182.48380419 4.55131916 196.24627495 4.53903532 C197.71372349 4.53776112 199.18117204 4.53650364 200.64862061 4.53526306 C201.370639 4.53464596 202.09265739 4.53402886 202.83655512 4.53339306 C207.92534088 4.52993892 213.01406762 4.53576986 218.10284424 4.54518127 C224.95158976 4.55756919 231.80003405 4.54875332 238.64875031 4.52560425 C241.16546384 4.5203056 243.68220224 4.52185056 246.19890594 4.53065491 C249.62822327 4.54154773 253.05658386 4.52792124 256.48583984 4.50793457 C257.48729349 4.51685746 258.48874714 4.52578034 259.52054787 4.53497362 C263.98201616 4.48436302 266.32781377 4.43257942 270.15713501 1.96825409 C270.76528046 1.31873024 271.3734259 0.66920639 272 0 C272.11760715 3.16634636 272.18771024 6.33212074 272.25 9.5 C272.28351563 10.386875 272.31703125 11.27375 272.3515625 12.1875 C272.45964982 19.53743794 270.9119697 24.6769968 266.03515625 30.2421875 C265.38417969 30.78101563 264.73320312 31.31984375 264.0625 31.875 C263.41410156 32.42929687 262.76570313 32.98359375 262.09765625 33.5546875 C256.68168276 37.28636384 251.78226122 37.28918435 245.41716003 37.26742554 C243.96139044 37.27422221 243.96139044 37.27422221 242.47621137 37.28115618 C239.22131594 37.29382531 235.9665873 37.29217817 232.71166992 37.29052734 C230.37911259 37.29651102 228.04655725 37.3033162 225.71400452 37.31088257 C219.37511206 37.32856623 213.03627358 37.33323896 206.69735885 37.33451414 C201.40659238 37.33641252 196.1158385 37.34376937 190.82507688 37.35085833 C179.05571567 37.36650227 167.28637787 37.37219544 155.51700719 37.37084763 C154.81103105 37.37076772 154.10505491 37.3706878 153.37768555 37.37060547 C152.67084522 37.37052371 151.9640049 37.37044195 151.23574517 37.37035771 C139.78272615 37.36954496 128.32983869 37.38868028 116.87685772 37.4168822 C105.11096231 37.44562551 93.34513102 37.45942169 81.57919961 37.45769465 C74.97595445 37.45718459 68.37285816 37.46289236 61.76964378 37.48405075 C55.55864822 37.50340864 49.34794391 37.50357408 43.1369381 37.48901749 C40.85852127 37.48692526 38.58008633 37.49165482 36.30170059 37.5037384 C33.18872152 37.51917775 30.07674835 37.50989065 26.96379089 37.49447632 C26.06445853 37.50476344 25.16512617 37.51505057 24.23854131 37.52564943 C17.27768293 37.44960279 12.02933998 35.65463068 6.7578125 31.03515625 C6.21898438 30.38417969 5.68015625 29.73320312 5.125 29.0625 C4.57070312 28.41410156 4.01640625 27.76570313 3.4453125 27.09765625 C-0.45054866 21.44339289 -0.24723646 16.33998445 -0.125 9.6875 C-0.11597656 8.75615234 -0.10695313 7.82480469 -0.09765625 6.86523438 C-0.07418263 4.5765564 -0.04134729 2.28841328 0 0 Z " fill="#686DAC" transform="translate(120,475)"/>
<path d="M0 0 C5.78333721 3.49487689 10.63045208 8.99791565 12.5625 15.5 C12.69960218 18.14607209 12.75312972 20.67469013 12.6875 23.3125 C12.67847656 24.00537109 12.66945313 24.69824219 12.66015625 25.41210938 C12.63676157 27.10822395 12.60089641 28.80415871 12.5625 30.5 C13.5525 30.45359375 14.5425 30.4071875 15.5625 30.359375 C29.92483644 29.8791753 29.92483644 29.8791753 35.5625 34.5 C40.60480096 39.3112792 44.16765587 43.65715651 44.8984375 50.76953125 C44.99233204 59.28576573 44.6802288 65.17595494 38.69140625 71.46484375 C32.64739322 77.05184256 28.01670926 78.82907169 19.75 78.625 C16.1921875 78.563125 16.1921875 78.563125 12.5625 78.5 C12.5625 86.42 12.5625 94.34 12.5625 102.5 C14.68429687 102.43039063 16.80609375 102.36078125 18.9921875 102.2890625 C21.08067461 102.24207505 23.1690996 102.20575616 25.2578125 102.17041016 C26.69330832 102.14050399 28.12862568 102.09976137 29.56347656 102.04736328 C38.84901444 101.71712449 46.15519375 102.17099643 53.5625 108.5 C59.16575543 114.48241093 60.83837369 121.07429399 60.75708008 129.16259766 C60.45999027 132.73140299 59.21831139 135.78191696 57.75 139 C57.44884277 139.69416016 57.14768555 140.38832031 56.83740234 141.10351562 C56.15432391 142.67119244 55.46339643 144.23546444 54.76611328 145.796875 C53.38537988 148.89778376 52.03406051 152.01079432 50.68359375 155.125 C48.73699083 159.59720844 46.78823021 164.06837414 44.8203125 168.53125 C44.4092627 169.46517578 43.99821289 170.39910156 43.57470703 171.36132812 C42.5625 173.5 42.5625 173.5 41.5625 174.5 C39.1868148 174.5883967 36.84041326 174.61530305 34.46484375 174.59765625 C33.40155602 174.59553383 33.40155602 174.59553383 32.31678772 174.59336853 C30.04448288 174.58775443 27.77227525 174.57519963 25.5 174.5625 C23.96289204 174.55748681 22.42578255 174.55292359 20.88867188 174.54882812 C17.11324358 174.53778042 13.33788829 174.52050641 9.5625 174.5 C10.20730442 169.79927854 12.13493873 165.82760475 14.16015625 161.59375 C14.88723815 160.02918923 15.61311046 158.46406587 16.33789062 156.8984375 C17.47417354 154.45541703 18.61702579 152.01663861 19.78149414 149.58691406 C27.14088031 134.19819852 27.14088031 134.19819852 25.57836914 117.54492188 C22.76421477 110.903594 18.72764228 107.37212324 12.26489258 104.46728516 C9.51914865 103.48448297 7.3820823 103.19274536 4.48046875 103.0859375 C3.6402417 103.05032715 2.80001465 103.0147168 1.93432617 102.97802734 C0.88349854 102.94402832 -0.1673291 102.9100293 -1.25 102.875 C-4.611875 102.75125 -7.97375 102.6275 -11.4375 102.5 C-11.4375 94.58 -11.4375 86.66 -11.4375 78.5 C-9.2925 78.4175 -7.1475 78.335 -4.9375 78.25 C3.68959695 77.59840657 8.56378542 75.92869371 14.4375 69.5625 C19.47593703 63.30749276 20.11024339 58.40493301 19.5625 50.5 C18.58039332 43.50248992 14.61968212 39.15670545 9.5625 34.5 C3.21666121 30.43866317 -4.06517751 30.79652892 -11.4375 30.5 C-11.51226562 29.365625 -11.58703125 28.23125 -11.6640625 27.0625 C-12.53401456 15.03370825 -12.53401456 15.03370825 -19.4375 5.5 C-20.16195312 4.98179687 -20.88640625 4.46359375 -21.6328125 3.9296875 C-22.22835937 3.45789063 -22.82390625 2.98609375 -23.4375 2.5 C-23.4375 1.84 -23.4375 1.18 -23.4375 0.5 C-16.50525287 -2.76376983 -7.08270586 -3.13861083 0 0 Z " fill="#8286C6" transform="translate(267.4375,1.5)"/>
<path d="M0 0 C0.33 0 0.66 0 1 0 C1.11760715 3.16634636 1.18771024 6.33212074 1.25 9.5 C1.28351563 10.386875 1.31703125 11.27375 1.3515625 12.1875 C1.45964982 19.53743794 -0.0880303 24.6769968 -4.96484375 30.2421875 C-5.61582031 30.78101563 -6.26679688 31.31984375 -6.9375 31.875 C-7.58589844 32.42929687 -8.23429687 32.98359375 -8.90234375 33.5546875 C-14.19092689 37.19859022 -18.89233525 37.27950307 -25.10473633 37.22705078 C-26.46645462 37.22748886 -26.46645462 37.22748886 -27.85568237 37.22793579 C-30.84789684 37.22654558 -33.83986043 37.21099883 -36.83203125 37.1953125 C-38.90996667 37.19158127 -40.98790386 37.18873482 -43.06584167 37.18673706 C-48.52880734 37.17910925 -53.99166628 37.159468 -59.45458984 37.1373291 C-65.03156083 37.11685236 -70.60854911 37.10773143 -76.18554688 37.09765625 C-87.12374475 37.07622137 -98.06186349 37.04209564 -109 37 C-108.19046875 36.23300781 -107.3809375 35.46601563 -106.546875 34.67578125 C-103.82416838 32.24349586 -103.82416838 32.24349586 -103.25 29.1875 C-105.01097137 21.70337169 -112.71003361 16.21896955 -118.08203125 11.078125 C-119.91085317 9.09659086 -120.86438459 7.41298587 -122 5 C-121.39554676 4.99853344 -120.79109352 4.99706688 -120.16832352 4.99555588 C-105.46254405 4.95850876 -90.75696591 4.89952201 -76.05138016 4.81609726 C-68.93984853 4.77628298 -61.82842794 4.74390274 -54.71679688 4.72900391 C-47.85669009 4.71461117 -40.9969398 4.67952752 -34.13698578 4.63169098 C-31.5167006 4.61682664 -28.89636632 4.60895611 -26.27603912 4.60811615 C-22.6123616 4.60576003 -18.94964542 4.57878774 -15.28613281 4.54589844 C-13.65262375 4.55344398 -13.65262375 4.55344398 -11.9861145 4.56114197 C-6.2471453 4.60917258 -6.2471453 4.60917258 -1.3571167 1.96588135 C-0.68534393 0.99277008 -0.68534393 0.99277008 0 0 Z " fill="#9C9FDE" transform="translate(511,443)"/>
<path d="M0 0 C1.0094165 -0.0112793 2.01883301 -0.02255859 3.05883789 -0.03417969 C4.16026123 -0.02608276 5.26168457 -0.01798584 6.39648438 -0.00964355 C7.56107178 -0.01665283 8.72565918 -0.02366211 9.92553711 -0.03088379 C13.78067771 -0.04850975 17.63508612 -0.03682384 21.49023438 -0.02331543 C24.1653739 -0.026009 26.84049107 -0.02988396 29.515625 -0.03491211 C35.12442987 -0.0421874 40.733024 -0.03260414 46.34179688 -0.0135498 C52.82441344 0.008219 59.30652679 0.00116752 65.78913116 -0.02085543 C71.35700027 -0.03901302 76.92471797 -0.04156609 82.49260712 -0.03110075 C85.81719107 -0.02486765 89.14148689 -0.02559741 92.46606445 -0.0372467 C96.17238595 -0.04738291 99.87773545 -0.03195028 103.58398438 -0.00964355 C104.68540771 -0.01774048 105.78683105 -0.0258374 106.92163086 -0.03417969 C108.43575562 -0.01726074 108.43575562 -0.01726074 109.98046875 0 C110.85650757 0.0015081 111.73254639 0.0030162 112.63513184 0.00457001 C115.76922829 0.67443175 116.98468568 2.06729702 118.99023438 4.50793457 C119.52148438 6.50793457 119.52148438 6.50793457 119.49023438 8.50793457 C119.50570312 9.49793457 119.50570312 9.49793457 119.52148438 10.50793457 C118.75060311 13.41007581 117.27232168 14.5993654 114.99023438 16.50793457 C112.63513184 17.01129913 112.63513184 17.01129913 109.98046875 17.01586914 C108.97105225 17.02714844 107.96163574 17.03842773 106.92163086 17.05004883 C105.82020752 17.0419519 104.71878418 17.03385498 103.58398438 17.0255127 C102.41939697 17.03252197 101.25480957 17.03953125 100.05493164 17.04675293 C96.19979104 17.06437889 92.34538263 17.05269298 88.49023438 17.03918457 C85.81509485 17.04187814 83.13997768 17.0457531 80.46484375 17.05078125 C74.85603888 17.05805654 69.24744475 17.04847328 63.63867188 17.02941895 C57.15605531 17.00765014 50.67394196 17.01470162 44.19133759 17.03672457 C38.62346848 17.05488216 33.05575078 17.05743523 27.48786163 17.04696989 C24.16327768 17.04073679 20.83898186 17.04146655 17.5144043 17.05311584 C13.8080828 17.06325205 10.1027333 17.04781942 6.39648438 17.0255127 C5.29506104 17.03360962 4.1936377 17.04170654 3.05883789 17.05004883 C1.54471313 17.03312988 1.54471313 17.03312988 0 17.01586914 C-0.87603882 17.01436104 -1.75207764 17.01285294 -2.65466309 17.01129913 C-5.78875954 16.34143739 -7.00421693 14.94857212 -9.00976562 12.50793457 C-9.54101562 10.50793457 -9.54101562 10.50793457 -9.50976562 8.50793457 C-9.52523437 7.51793457 -9.52523437 7.51793457 -9.54101562 6.50793457 C-8.23625145 1.59588121 -4.74608273 0.00817039 0 0 Z " fill="#686DAC" transform="translate(201.009765625,175.4920654296875)"/>
<path d="M0 0 C21.12 0 42.24 0 64 0 C64 7.92 64 15.84 64 24 C42.88 24 21.76 24 0 24 C0 16.08 0 8.16 0 0 Z " fill="#9DA0DF" transform="translate(208,192)"/>
<path d="M0 0 C2.21708449 2.21708449 2.8796826 3.84443497 4.03125 6.7421875 C4.42521973 7.71720215 4.81918945 8.6922168 5.22509766 9.69677734 C5.64581543 10.74559082 6.0665332 11.7944043 6.5 12.875 C10.26151128 22.11362848 14.35482433 31.07666093 18.95117188 39.92919922 C19.35142578 40.70279785 19.75167969 41.47639648 20.1640625 42.2734375 C20.51936035 42.94810059 20.8746582 43.62276367 21.24072266 44.31787109 C22 46 22 46 22 48 C23.051875 47.896875 24.10375 47.79375 25.1875 47.6875 C29 48 29 48 31.671875 49.98046875 C34.71091376 53.92204083 34.82278971 56.7803288 35.0625 61.625 C35.98178778 73.01821537 39.7210405 81.9268834 45 92 C45.66 93.32 46.32 94.64 47 96 C41.39 96 35.78 96 30 96 C23.03477999 82.76608199 17.76113912 70.85707013 17.2734375 55.64453125 C17.18398586 52.77094716 17.18398586 52.77094716 15 50 C13.0344564 49.67563156 13.0344564 49.67563156 10.8203125 49.60546875 C7.37548957 48.9337628 6.24684736 48.31054793 4.03027344 45.52197266 C2.1388571 42.18074592 0.48172452 38.79939395 -1.125 35.3125 C-2.00671875 33.55389648 -2.00671875 33.55389648 -2.90625 31.75976562 C-6.66684331 23.9428516 -7.46678858 19.70759847 -4.84375 11.2890625 C-4.4003125 10.07992188 -3.956875 8.87078125 -3.5 7.625 C-3.0565625 6.40039062 -2.613125 5.17578125 -2.15625 3.9140625 C-1 1 -1 1 0 0 Z " fill="#D1D1FB" transform="translate(342,352)"/>
<path d="M0 0 C0.33 0 0.66 0 1 0 C1.11760715 3.16634636 1.18771024 6.33212074 1.25 9.5 C1.28351563 10.386875 1.31703125 11.27375 1.3515625 12.1875 C1.45964982 19.53743794 -0.0880303 24.6769968 -4.96484375 30.2421875 C-5.61582031 30.78101563 -6.26679688 31.31984375 -6.9375 31.875 C-7.91009766 32.70644531 -7.91009766 32.70644531 -8.90234375 33.5546875 C-14.35735782 37.3132633 -19.26719 37.2694011 -25.67578125 37.1953125 C-27.06351997 37.19106766 -27.06351997 37.19106766 -28.47929382 37.18673706 C-31.42382942 37.17557392 -34.36805688 37.15047637 -37.3125 37.125 C-39.31314664 37.11496521 -41.31379806 37.10584023 -43.31445312 37.09765625 C-48.2097535 37.07564722 -53.10482457 37.04114391 -58 37 C-55 35 -55 35 -51.6875 33.3125 C-45.90343134 30.02832542 -42.12016511 25.26993144 -40 19 C-39.71664284 16.57007865 -39.51196541 14.1300498 -39.375 11.6875 C-39.30023438 10.43324219 -39.22546875 9.17898438 -39.1484375 7.88671875 C-39.09945313 6.93410156 -39.05046875 5.98148437 -39 5 C-37.44104004 4.98598145 -37.44104004 4.98598145 -35.85058594 4.97167969 C-31.98866162 4.93175877 -28.1275322 4.86599522 -24.26611328 4.79248047 C-22.59596989 4.76428282 -20.92569335 4.74306221 -19.25537109 4.72900391 C-16.85184628 4.70755663 -14.44992017 4.66090155 -12.046875 4.609375 C-10.9294693 4.60753204 -10.9294693 4.60753204 -9.78948975 4.60565186 C-6.1959815 4.50448594 -4.36225229 4.30252922 -1.55957031 1.96191406 C-1.04491211 1.31448242 -0.53025391 0.66705078 0 0 Z " fill="#505795" transform="translate(391,475)"/>
<path d="M0 0 C0.33 0 0.66 0 1 0 C1.11760715 3.16634636 1.18771024 6.33212074 1.25 9.5 C1.28351562 10.386875 1.31703125 11.27375 1.3515625 12.1875 C1.45964982 19.53743794 -0.0880303 24.6769968 -4.96484375 30.2421875 C-5.61582031 30.78101563 -6.26679688 31.31984375 -6.9375 31.875 C-7.91009766 32.70644531 -7.91009766 32.70644531 -8.90234375 33.5546875 C-14.35735782 37.3132633 -19.26719 37.2694011 -25.67578125 37.1953125 C-27.06351997 37.19106766 -27.06351997 37.19106766 -28.47929382 37.18673706 C-31.42382942 37.17557392 -34.36805688 37.15047637 -37.3125 37.125 C-39.31314664 37.11496521 -41.31379806 37.10584023 -43.31445312 37.09765625 C-48.2097535 37.07564722 -53.10482457 37.04114391 -58 37 C-55 35 -55 35 -51.6875 33.3125 C-45.90343134 30.02832542 -42.12016511 25.26993144 -40 19 C-39.71664284 16.57007865 -39.51196541 14.1300498 -39.375 11.6875 C-39.30023438 10.43324219 -39.22546875 9.17898438 -39.1484375 7.88671875 C-39.09945313 6.93410156 -39.05046875 5.98148437 -39 5 C-37.44104004 4.98598145 -37.44104004 4.98598145 -35.85058594 4.97167969 C-31.98866162 4.93175877 -28.1275322 4.86599522 -24.26611328 4.79248047 C-22.59596989 4.76428282 -20.92569335 4.74306221 -19.25537109 4.72900391 C-16.85184628 4.70755663 -14.44992017 4.66090155 -12.046875 4.609375 C-10.9294693 4.60753204 -10.9294693 4.60753204 -9.78948975 4.60565186 C-6.1959815 4.50448594 -4.36225229 4.30252922 -1.55957031 1.96191406 C-1.04491211 1.31448242 -0.53025391 0.66705078 0 0 Z " fill="#8286C6" transform="translate(511,443)"/>
<path d="M0 0 C4.87461475 -0.09924823 9.74863497 -0.17164581 14.62402344 -0.21972656 C16.28070325 -0.23978009 17.93731282 -0.26703029 19.59375 -0.30175781 C21.98194758 -0.35055512 24.36920547 -0.37303064 26.7578125 -0.390625 C27.85973434 -0.42159271 27.85973434 -0.42159271 28.98391724 -0.45318604 C34.16253101 -0.45542028 37.00314104 0.76427105 41 4 C44.62833663 7.81930172 45.31000458 10.88279006 45.5 16 C45.31000458 21.11720994 44.62833663 24.18069828 41 28 C36.29480696 31.80917353 32.65342031 32.55631142 26.7578125 32.390625 C25.98944061 32.38496521 25.22106873 32.37930542 24.42941284 32.37347412 C21.99395379 32.35122173 19.56000843 32.30105041 17.125 32.25 C15.4661672 32.22992042 13.80731116 32.2116722 12.1484375 32.1953125 C8.09838201 32.15139406 4.04944694 32.08244763 0 32 C0.59554688 31.71640625 1.19109375 31.4328125 1.8046875 31.140625 C5.96374743 28.97968995 9.21021477 26.47655499 11.4375 22.3125 C12.31613306 17.13832756 12.47215054 11.87363785 10.0234375 7.09375 C7.25617146 3.45167083 4.37830355 2.01821013 0 1 C0 0.67 0 0.34 0 0 Z " fill="#505795" transform="translate(275,216)"/>
<path d="M0 0 C10.56 0 21.12 0 32 0 C32 7.92 32 15.84 32 24 C21.44 24 10.88 24 0 24 C0 16.08 0 8.16 0 0 Z " fill="#8286C6" transform="translate(272,192)"/>
<path d="M0 0 C5.90815343 -0.09890033 11.81582472 -0.17148371 17.72460938 -0.21972656 C19.73446038 -0.23983805 21.74425291 -0.26713115 23.75390625 -0.30175781 C26.64337596 -0.35029634 29.53207191 -0.37297322 32.421875 -0.390625 C33.31992859 -0.41127014 34.21798218 -0.43191528 35.14324951 -0.45318604 C41.38487755 -0.45542945 41.38487755 -0.45542945 44.56542969 1.89941406 C46.11326565 4.16585052 46.54246616 5.28216578 46.5 8 C46.5103125 8.66 46.520625 9.32 46.53125 10 C45.71263582 13.08184162 44.57704113 14.09198896 42 16 C38.80558176 16.56257735 35.65661868 16.46498776 32.421875 16.390625 C31.4953009 16.38496521 30.56872681 16.37930542 29.61407471 16.37347412 C26.65885438 16.35110921 23.70485295 16.30091262 20.75 16.25 C18.7448092 16.22993515 16.73959936 16.21168435 14.734375 16.1953125 C9.82244806 16.151244 4.91143058 16.08221555 0 16 C0.81597656 15.23945313 1.63195312 14.47890625 2.47265625 13.6953125 C5.27434903 11.22622827 5.27434903 11.22622827 5.4375 7.875 C5.17844932 4.80919458 5.17844932 4.80919458 3 2 C2.01 1.34 1.02 0.68 0 0 Z " fill="#505795" transform="translate(274,176)"/>
<path d="M0 0 C1.46535356 0.02652224 2.93044676 0.07413383 4.39453125 0.140625 C5.14412109 0.15867187 5.89371094 0.17671875 6.66601562 0.1953125 C8.51356835 0.24238391 10.36046284 0.31412734 12.20703125 0.390625 C9.30505078 5.08005721 6.05156941 8.76794786 2.08203125 12.578125 C-4.3212038 18.70299548 -4.3212038 18.70299548 -6.41796875 27.078125 C-6.49273437 28.07199219 -6.5675 29.06585938 -6.64453125 30.08984375 C-6.69351563 30.84910156 -6.7425 31.60835938 -6.79296875 32.390625 C-16.630087 33.1658795 -16.630087 33.1658795 -20.98046875 30.265625 C-22.79296875 27.390625 -22.79296875 27.390625 -23.54296875 24.578125 C-21.78936552 17.12531128 -14.12426843 11.63573448 -8.80859375 6.46875 C-6.72896254 4.50394263 -6.72896254 4.50394263 -5.5390625 2.140625 C-3.79296875 0.390625 -3.79296875 0.390625 0 0 Z " fill="#8286C6" transform="translate(126.79296875,447.609375)"/>
</svg>
